<svg width="635" height="324" fill="none" xmlns="http://www.w3.org/2000/svg">
  <path fill-rule="evenodd" clip-rule="evenodd" d="M245.312 10.941c-8.051-2.461-16.037 1.215-18.06 7.83-2.022 6.614 2.543 14.129 10.594 16.59 8.051 2.462 16.038-1.215 18.06-7.83 2.022-6.614-2.543-14.128-10.594-16.59zm-19.972 7.245c2.424-7.928 11.727-11.857 20.557-9.158 8.83 2.7 14.346 11.16 11.922 19.088-2.424 7.928-11.728 11.857-20.558 9.158-8.83-2.7-14.345-11.16-11.921-19.088zM206.427 55.277l.216.714c1.894 6.26 3.987 10.88 6.225 13.94 2.149 2.938 5.992 6.564 11.62 10.865l1.31 1-26.208 12.289-.388-.139c-6.066-2.168-10.695-4.083-13.856-5.752-1.34-.708-2.48-1.388-3.378-2.055-.884-.656-1.606-1.354-2.024-2.12l-.191-.35.103-.386c1.63-6.102 4.25-11.127 7.914-15.018.545-.578 1.113-1.21 1.726-1.893l.063-.07c2.797-3.116 6.42-7.151 12.026-10.376.485-.279 1.099-.426 1.744-.514.663-.09 1.454-.127 2.352-.131l.746-.004zm-2.83 2.117c-.558.076-.867.18-1.015.265-5.328 3.065-8.773 6.903-11.574 10.022l-.024.027c-.609.678-1.194 1.33-1.758 1.928-3.31 3.515-5.753 8.083-7.321 13.735.255.332.659.72 1.256 1.163.781.58 1.821 1.206 3.119 1.891 2.969 1.568 7.364 3.399 13.208 5.499l22.487-10.544c-4.994-3.916-8.582-7.344-10.721-10.27-2.336-3.193-4.436-7.814-6.303-13.817-.528.017-.978.05-1.354.101zM320.089 13.636c.406.008.849.04 1.191.17.401.151.871.387 1.397.686l1.313.744-1.198.92c-.455.348-.911.918-1.302 1.803-.718 1.623-1.669 4.693-2.841 9.273L323 29.896l-5.752 9.91-11.287-4.657 6.405-20.895.655-.07c2.264-.245 4.07-.418 5.396-.5.663-.04 1.224-.058 1.672-.048zm-6.198 2.466l-5.484 17.892 7.988 3.297 3.894-6.71-3.94-2.412.18-.714c1.253-4.969 2.301-8.425 3.132-10.304a7.796 7.796 0 01.848-1.485 4.046 4.046 0 00-.464-.03 19.24 19.24 0 00-1.506.045c-1.15.07-2.698.214-4.648.421zM177.693 31.032l.418.189c2.052.929 3.756 1.803 5.084 2.633 1.309.82 2.334 1.646 2.942 2.51.702.997 1.018 2.154 1.173 3.259.137.978.156 1.988.172 2.873l.006.32c.03 1.413.079 2.511.309 3.26 1.261 4.11.868 8.79-.974 13.978l-.125.35-14.864 8.455-.063.026c-9.721 3.899-17.267 5.498-22.467 4.357-5.072-1.113-10.051-5.33-15.048-12.137l-.416-.566.392-.584c3.183-4.737 7.841-9.136 13.914-13.225 6.357-4.28 16.08-9.448 29.131-15.505l.416-.193zm.009 2.2c-12.813 5.961-22.282 11.011-28.439 15.157-5.666 3.815-9.982 7.849-12.972 12.102 4.759 6.34 9.226 9.872 13.442 10.798 4.546.997 11.568-.366 21.231-4.235l14.096-8.019c1.641-4.78 1.895-8.886.825-12.372-.328-1.068-.368-2.47-.396-3.805a34.16 34.16 0 00-.007-.322c-.017-.9-.034-1.785-.153-2.635-.133-.945-.381-1.752-.828-2.386-.375-.533-1.127-1.19-2.367-1.965-1.136-.71-2.612-1.48-4.432-2.317z" fill="#fff"/>
  <path fill-rule="evenodd" clip-rule="evenodd" d="M308.502 4.443c1.3.396 2.391.853 3.184 1.423.391.281.958.74 1.135 1.45l.051.204-.035.206c-1.2 7.038-2.327 12.308-3.39 15.777-1.023 3.338-2.576 6.92-4.644 10.744l-.258.477-43.071 3.553-.328-.485c-5.184-7.68-8.38-14.075-9.423-19.165-1.024-4.998-.4-10.899 1.72-17.655l.228-.726.76.026c17.013.578 30.91 1.315 41.685 2.21 5.387.449 9.533 1.09 12.386 1.96zm2.017 3.047c-.53-.38-1.376-.76-2.601-1.134-2.644-.807-6.619-1.435-11.968-1.88-10.568-.879-24.174-1.605-40.822-2.18-1.877 6.255-2.343 11.55-1.446 15.93.942 4.596 3.851 10.566 8.796 17.961l40.821-3.367c1.892-3.556 3.302-6.856 4.236-9.903 1.007-3.287 2.098-8.341 3.272-15.191a2.373 2.373 0 00-.288-.236zM260.406 51.06c-7.148-2.186-14.145.996-15.881 6.674-1.736 5.678 2.286 12.228 9.434 14.414 7.148 2.185 14.145-.996 15.881-6.674 1.736-5.679-2.286-12.229-9.434-14.414zm-17.793 6.09c2.147-7.025 10.489-10.415 18.378-8.003 7.889 2.412 12.909 9.887 10.761 16.911-2.147 7.025-10.489 10.414-18.378 8.002-7.889-2.412-12.909-9.886-10.761-16.91zM209.532 92.648l.107.05c4.379 2.058 7.794 5.25 10.235 9.542 1.785 3.141 3.219 6.331 4.073 9.2.841 2.83 1.167 5.504.548 7.523-.299.974-1.298 2.512-2.984 4.323-1.72 1.847-4.238 4.065-7.702 6.389-2.605 1.746-7.655 4.392-15.078 7.929l-.3.143-.326-.065c-5.643-1.121-9.707-2.215-12.093-3.321-2.314-1.073-4.525-2.861-6.658-5.283l-.256-.291.007-.388c.093-5.024 1.463-10.058 4.061-15.097 1.283-2.488 4.278-5.598 8.044-9.009 3.603-3.264 8.035-6.91 12.635-10.695l.763-.627c.624-.514 1.417-.664 2.185-.672.776-.009 1.668.127 2.624.325l.115.024zm-2.717 1.65c-.564.007-.82.121-.936.217l-.747.614c-4.615 3.797-9.013 7.415-12.58 10.646-3.795 3.438-6.516 6.323-7.609 8.443-2.409 4.675-3.68 9.281-3.828 13.829 1.922 2.128 3.833 3.616 5.738 4.499 2.106.977 5.852 2.013 11.317 3.11 7.27-3.471 12.092-6.011 14.525-7.643 3.35-2.246 5.747-4.367 7.352-6.09 1.639-1.76 2.376-3.023 2.536-3.546.441-1.439.258-3.639-.553-6.367-.8-2.687-2.163-5.735-3.895-8.782-2.222-3.908-5.296-6.79-9.24-8.67-.862-.174-1.548-.265-2.08-.26z" fill="#fff"/>
  <path fill-rule="evenodd" clip-rule="evenodd" d="M222.317 90.442c-5.495-1.68-10.928.922-12.323 5.485-1.395 4.562 1.654 9.758 7.149 11.437 5.494 1.68 10.927-.922 12.322-5.485 1.395-4.562-1.654-9.758-7.148-11.438zm-14.235 4.9c1.785-5.84 8.504-8.744 14.819-6.813 6.316 1.93 10.262 8.095 8.477 13.935-1.785 5.84-8.504 8.744-14.82 6.813-6.315-1.931-10.262-8.095-8.476-13.935z" fill="#fff"/>
  <path fill-rule="evenodd" clip-rule="evenodd" d="M238.827 56.019c.461.135.994.342 1.583.593l.908.388-.376.913a1.886 1.886 0 00-.062.173c-.072.232-.068.38-.053.465a.516.516 0 00.102.23c1.554 2.064 3.68 4.02 5.879 6.029l.065.06c1.535 1.401 3.105 2.835 4.431 4.318 3.393 3.794 7.615 9.338 12.664 16.61l.559.805-25.093 18.203-.301.013c-5.234.224-10.317-1.4-15.237-4.759-4.973-3.396-9.141-8.124-12.527-14.138l-.258-.46.233-.473c3.902-7.913 8.976-14.793 15.225-20.63 1.065-.995 2.033-1.943 2.938-2.829l.574-.563c1.224-1.203 2.345-2.305 3.413-3.16 1.238-.993 2.516-1.751 3.957-1.954.453-.063.942.039 1.376.166zm-.967 1.825c-.093-.013-.131-.01-.131-.01h.001c-.918.129-1.858.629-2.985 1.533-.983.787-2.022 1.808-3.256 3.02l-.583.572c-.903.885-1.887 1.848-2.972 2.861-5.941 5.55-10.794 12.075-14.56 19.58 3.21 5.568 7.093 9.897 11.65 13.008 4.53 3.093 9.096 4.553 13.726 4.423l23.016-16.696c-4.782-6.849-8.764-12.048-11.953-15.614-1.258-1.407-2.765-2.783-4.33-4.213l-.024-.022c-2.169-1.982-4.441-4.062-6.127-6.302a2.552 2.552 0 01-.497-1.852 8.156 8.156 0 00-.571-.194 2.993 2.993 0 00-.404-.094zM311.2 171.138c4.198-.12 8.455 1.209 12.764 3.858l.112.069.09.095c3.577 3.771 6.006 7.572 7.182 11.423.871 2.85 1.309 6.053 1.455 8.783a34.91 34.91 0 01.016 3.691c-.057 1.036-.172 1.94-.36 2.553-.34 1.11-1.134 2.356-2.036 3.429-.906 1.079-2.016 2.095-3.081 2.691-1.103.616-2.55.979-3.794 1.195a22.77 22.77 0 01-3.033.32c-.25.007-.487-.06-.644-.111a5.888 5.888 0 01-.586-.236 17.641 17.641 0 01-1.488-.799c-1.144-.673-2.604-1.637-4.207-2.81-3.203-2.342-7.031-5.557-10.083-9.022-3.108-3.528-5.462-7.293-7.064-10.315a47.797 47.797 0 01-1.849-3.88c-.414-.996-.693-1.797-.763-2.205-.096-.56.042-1.163.224-1.706.191-.571.484-1.226.837-1.946l.157-.319.324-.149c6.335-2.902 11.624-4.488 15.827-4.609zm11.605 5.494c-4.023-2.451-7.864-3.6-11.548-3.495-3.737.108-8.627 1.515-14.724 4.28-.263.55-.457 1.006-.582 1.378-.157.471-.158.681-.149.733.027.155.216.761.638 1.774.407.976.997 2.253 1.77 3.713 1.549 2.923 3.818 6.549 6.797 9.93 2.927 3.322 6.634 6.441 9.763 8.73 1.563 1.143 2.967 2.068 4.042 2.701.539.318.981.553 1.311.705.165.077.287.125.369.152l.036.011a21.091 21.091 0 002.678-.29c1.182-.205 2.358-.522 3.159-.97.783-.438 1.713-1.263 2.527-2.232.819-.974 1.426-1.981 1.655-2.728.114-.373.221-1.079.275-2.076a32.99 32.99 0 00-.016-3.475c-.14-2.622-.56-5.654-1.37-8.305-1.051-3.439-3.247-6.947-6.631-10.536z" fill="#fff"/>
  <path fill-rule="evenodd" clip-rule="evenodd" d="M308.749 161.422c-5.72-1.749-11.401.977-12.867 5.773-1.467 4.797 1.718 10.234 7.439 11.983 5.72 1.748 11.4-.977 12.867-5.774 1.466-4.797-1.719-10.234-7.439-11.982zm-14.78 5.189c1.855-6.066 8.814-9.105 15.365-7.102s10.621 8.414 8.766 14.479c-1.854 6.066-8.813 9.105-15.364 7.102s-10.621-8.414-8.767-14.479z" fill="#fff"/>
  <path fill-rule="evenodd" clip-rule="evenodd" d="M319.254 138.629c2.705 1.867 5.825 4.37 9.359 7.487l.455.402-4.627 18.699-.047.095c-1.838 3.769-4.365 6.214-7.762 6.791-1.747.296-4.004.177-6.719-.285-2.729-.464-5.988-1.286-9.768-2.446l-.098-.03-.09-.049c-3.279-1.798-5.609-3.256-6.889-4.377-1.222-1.07-2.25-2.521-3.123-4.294l-.105-.213.002-.237c.042-5.23.262-9.649.667-13.249.388-3.45 1.063-7.186 2.02-11.206l.16-.671.684-.089c8.7-1.132 15.059-1.222 18.894-.052 1.959.597 4.293 1.864 6.987 3.724zm-1.136 1.646c-2.629-1.815-4.765-2.948-6.434-3.457-3.29-1.003-9.031-1.011-17.368.035-.858 3.698-1.463 7.129-1.819 10.293-.389 3.453-.607 7.718-.653 12.802.766 1.508 1.615 2.652 2.542 3.464 1.086.952 3.209 2.302 6.443 4.078 3.691 1.129 6.829 1.916 9.419 2.357 2.628.447 4.628.525 6.049.284 2.501-.424 4.58-2.215 6.254-5.602l4.284-17.313c-3.311-2.9-6.214-5.213-8.717-6.941z" fill="#fff"/>
  <path fill-rule="evenodd" clip-rule="evenodd" d="M311.876 122.947c3.649 1.113 6.604 3.378 8.405 6.189 1.751 2.735 2.418 6.02 1.447 9.188-.991 3.233-3.464 5.614-6.534 6.887-.572.237-1.291.275-1.991.24-.73-.036-1.572-.159-2.468-.34-1.793-.361-3.888-.97-5.894-1.659-1.891-.65-3.792-1.397-5.331-2.172-.769-.387-1.47-.792-2.041-1.207-.554-.402-1.071-.874-1.371-1.419-1.42-2.578-1.896-5.567-1.011-8.454.971-3.169 3.366-5.52 6.351-6.81 3.068-1.326 6.787-1.556 10.438-.443zm6.72 7.268c-1.531-2.391-4.084-4.373-7.304-5.355-3.22-.982-6.45-.763-9.061.366-2.535 1.096-4.459 3.038-5.232 5.56-.705 2.3-.346 4.731.851 6.902.088.162.323.425.794.767.453.329 1.051.679 1.765 1.039 1.427.718 3.234 1.432 5.082 2.066 1.955.672 3.961 1.252 5.64 1.591.84.169 1.576.273 2.171.303.625.03.977-.029 1.126-.091 2.613-1.083 4.599-3.053 5.388-5.625.773-2.521.267-5.202-1.22-7.523z" fill="#fff"/>
  <path fill-rule="evenodd" clip-rule="evenodd" d="M339.451 91.746c2.464 1.923 5.119 4.636 7.975 8.077 5.937 7.15 8.005 14.527 5.815 22.062l-.089.306-20.728 16.484-.451-.085c-6.565-1.249-11.394-2.939-14.256-5.242-.866-.697-2.55-2.47-4.505-4.528a96.903 96.903 0 00-.324-.341c-2.11-2.221-4.555-4.784-6.849-7.001-2.322-2.245-4.399-4.045-5.789-4.819l-.311-.173-.131-.33c-.136-.34-.099-.688-.086-.808a.154.154 0 00.002-.019c.072-.729.399-1.558.832-2.435l.102-.206L332.03 88.32l.409.05c2.219.272 4.558 1.461 7.012 3.376zm-6.859-1.33l-30.342 23.568c-.255.536-.408.947-.484 1.254 1.585 1.016 3.604 2.812 5.663 4.802 2.329 2.251 4.802 4.844 6.909 7.061l.166.175c2.086 2.195 3.709 3.904 4.466 4.513 2.4 1.931 6.664 3.522 12.928 4.749l19.508-15.514c1.82-6.641.024-13.248-5.518-19.924-2.808-3.381-5.359-5.976-7.667-7.777-2.142-1.67-4.011-2.608-5.629-2.907z" fill="#fff"/>
  <path fill-rule="evenodd" clip-rule="evenodd" d="M367.991 11.87c3.06.644 8.319 2.254 15.737 4.798l.02.007.019.008c8.453 3.301 23.2 8.534 44.255 15.701 6.816 2.32 14.932 4.935 24.166 7.91l.005.001c8.915 2.872 18.868 6.078 29.685 9.675 8.33 2.77 21.952 7.443 40.862 14.017l.156.055.131.102c9.526 7.445 15.173 19.88 17.232 36.988 2.095 17.408-4.245 33.331-18.749 47.743l-.145.144-.19.075c-3.732 1.484-9.961 1.925-18.512 1.47-8.6-.456-19.703-1.83-33.288-4.087-9.49-1.577-21.642-6.184-34.923-11.22l-.3-.113c-13.972-5.297-29.239-11.08-44.279-14.578-7.431-1.728-17.51-2.337-30.275-1.778l-2.551.111 1.797-1.814c.257-.259.435-.521.554-.778 1.29-2.807 1.652-5.722 1.536-8.236-.117-2.531-.713-4.581-1.26-5.64-.15-.29-.306-.756-.46-1.253-.124-.395-.265-.872-.422-1.403l-.161-.541c-.924-3.107-2.337-7.6-4.149-11.503-.906-1.952-1.896-3.718-2.951-5.079-1.068-1.377-2.122-2.233-3.125-2.539-1.121-.342-2.066-.262-2.9.136-.792.378-1.585 1.11-2.304 2.344-1.173 2.014-2.11 5.334-2.695 10.085l-.141 1.142-1.111-.299c-3.667-.985-6.808-2.344-9.396-4.104-2.713-1.846-6.228-4.996-10.534-9.394l-.757-.772.829-.694c9.31-7.791 15.027-13.735 17.362-17.83 5.157-9.044 5.065-20.108 5.034-22.865l-.001-.053c-.002-.175-.004-.328-.002-.433.016-.959-.332-1.413-.758-1.683-.41-.26-1.139-.424-2.235-.22-1.826.34-4.465 1.657-7.032 3.726-3.335 2.688-6.698 6.32-9.191 9.02l-.121.13c-.665.72-1.266 1.37-1.776 1.9l-1.498 1.557-.217-2.15c-.451-4.46-1.623-7.974-3.534-10.702l-.401-.573.401-.574c3.678-5.268 6.148-9.102 7.443-11.524.459-.86.902-1.699 1.334-2.517l.472-.895c1.607-3.052 3.074-5.837 4.645-8.052 1.73-2.44 3.679-4.327 6.249-5.14 1.882-.595 4.087-.692 6.619-.551 2.369.132 5.113.48 8.249.878l.667.085c1.087.137 2.395.204 3.974.283l.036.002c3.27.163 7.577.378 12.875 1.494zm15.068 6.683c-7.414-2.542-12.559-4.111-15.48-4.726-5.144-1.084-9.321-1.292-12.584-1.455h-.015c-1.556-.078-2.947-.148-4.125-.297l-.639-.081c-3.167-.402-5.842-.741-8.137-.87-2.451-.136-4.369-.024-5.905.462-1.969.623-3.6 2.104-5.22 4.39-1.49 2.1-2.894 4.765-4.522 7.855l-.458.868c-.432.818-.877 1.662-1.34 2.527-1.306 2.445-3.705 6.174-7.175 11.164 1.603 2.49 2.653 5.463 3.215 8.938l.317-.343.114-.124c2.474-2.678 5.936-6.423 9.405-9.219 2.708-2.183 5.649-3.712 7.921-4.135 1.406-.262 2.697-.12 3.67.496 1.063.673 1.716 1.808 1.689 3.407-.001.074 0 .2.002.397l.001.032c.031 2.753.155 14.318-5.296 23.879-2.456 4.306-8.154 10.217-16.986 17.675 3.93 3.964 7.081 6.743 9.473 8.37 2.111 1.437 4.67 2.61 7.691 3.515.604-4.262 1.531-7.515 2.799-9.691.865-1.486 1.926-2.55 3.171-3.143 1.332-.636 2.798-.715 4.345-.244 1.583.483 2.952 1.718 4.122 3.227 1.183 1.525 2.245 3.44 3.184 5.462 1.878 4.044 3.325 8.657 4.252 11.775l.165.556c.156.526.291.982.41 1.363.167.537.273.825.328.93.708 1.372 1.354 3.718 1.481 6.466.121 2.639-.233 5.717-1.527 8.736 11.966-.425 21.618.205 28.921 1.903 15.193 3.533 30.586 9.368 44.535 14.656l.112.042c13.431 5.092 25.436 9.643 34.73 11.188 13.552 2.252 24.572 3.612 33.066 4.063 8.382.445 14.158-.006 17.479-1.258 14.05-14.027 20.026-29.315 18.025-45.938-2.016-16.75-7.481-28.548-16.348-35.55-18.827-6.544-32.385-11.195-40.679-13.953-10.807-3.594-20.753-6.798-29.669-9.67h-.002c-9.23-2.974-17.362-5.594-24.198-7.92-21.038-7.162-35.816-12.405-44.318-15.725zM193.369 28.526c3.311 1.01 5.969 3.124 7.566 5.764 1.566 2.587 2.117 5.697 1.196 8.704-.922 3.008-3.124 5.279-5.871 6.55-2.804 1.297-6.193 1.568-9.504.558-2.667-.813-4.908-2.343-6.515-4.285-.83-1.004-.968-2.103-1.073-2.945l-.027-.208a14.794 14.794 0 00-.254-1.507 20.235 20.235 0 00-.417-1.427l-.087-.27c-.156-.481-.337-1.039-.446-1.592-.134-.678-.184-1.447.057-2.234.922-3.008 3.124-5.279 5.871-6.55 2.804-1.296 6.193-1.568 9.504-.558zm5.855 6.8c-1.336-2.208-3.585-4.017-6.438-4.887-2.853-.87-5.734-.625-8.081.46-2.296 1.062-4.063 2.92-4.799 5.321-.109.357-.106.763-.007 1.26.084.426.221.85.376 1.33l.101.313c.16.504.331 1.041.457 1.572a16.585 16.585 0 01.306 1.823c.122.93.194 1.481.643 2.024 1.354 1.637 3.261 2.947 5.557 3.647 2.853.87 5.735.625 8.081-.46 2.296-1.062 4.063-2.92 4.799-5.32.735-2.4.312-4.925-.995-7.083z" fill="#fff"/>
  <path fill-rule="evenodd" clip-rule="evenodd" d="M489.948 66.905a1 1 0 01.4 1.357c-3.181 5.838-9.509 7.935-18.398 6.763-18.568-2.448-37.963-6.627-54.145-10.115l-1.083-.233c-8.207-1.768-15.539-3.339-21.483-4.395-5.989-1.065-10.428-1.579-12.923-1.306-13.355 1.458-23.856 7.402-31.579 17.847a1 1 0 11-1.608-1.19c8.066-10.909 19.08-17.129 32.97-18.646 2.826-.308 7.548.27 13.49 1.326 5.987 1.064 13.357 2.643 21.554 4.409l1.055.227c16.2 3.491 35.527 7.656 54.013 10.093 8.507 1.121 13.771-.948 16.381-5.737a1 1 0 011.356-.4zM486.843 55.608a1 1 0 01-.845 1.134c-9.834 1.44-18.659 1.29-26.458-.485-19.889-4.527-39.188-10.166-54.901-14.826l-3.297-.979c-6.516-1.935-12.328-3.66-17.211-5.016-5.713-1.586-10.08-2.642-12.795-2.948-14.377-1.615-25.942-.538-34.766 3.134a1 1 0 01-.769-1.846c9.254-3.852 21.197-4.911 35.759-3.275 2.897.325 7.412 1.427 13.106 3.008 4.902 1.36 10.734 3.092 17.248 5.027l3.294.977c15.711 4.66 34.956 10.283 54.776 14.793 7.506 1.708 16.075 1.87 25.724.457a1 1 0 011.135.845zM344.343 96.438a1 1 0 01-.181 1.402l-34.679 26.762a1 1 0 01-1.222-1.583l34.679-26.762a1 1 0 011.403.18zM296.202 179.75a.999.999 0 011.386-.278c4.531 3.015 7.792 5.981 9.682 8.916 1.79 2.778 5.226 8.287 10.303 16.519a1 1 0 11-1.702 1.05c-5.079-8.235-8.505-13.727-10.282-16.486-1.676-2.603-4.68-5.387-9.109-8.334a1 1 0 01-.278-1.387zM302.831 140.057a1 1 0 01.833 1.143c-1.189 7.584-2.14 13.922-2.856 19.014-.354 2.52-.479 4.506-.395 5.979.087 1.528.389 2.296.676 2.608a1 1 0 11-1.474 1.352c-.785-.856-1.108-2.24-1.199-3.846-.094-1.661.05-3.792.412-6.371.717-5.106 1.671-11.455 2.86-19.046a1 1 0 011.143-.833z" fill="#fff"/>
  <path fill-rule="evenodd" clip-rule="evenodd" d="M357.028 91.35a1 1 0 01-.479 1.33l-11.737 5.528a1 1 0 11-.852-1.81l11.737-5.527a1 1 0 011.331.479zM360.389 116.016a1 1 0 01-.415 1.352l-6.541 3.469a1 1 0 11-.937-1.767l6.541-3.469a1 1 0 011.352.415zM341.449 50.518a1 1 0 01-.946 1.05l-20.411 1.062a1 1 0 01-.104-1.998l20.411-1.06a1 1 0 011.05.946zM331.984 69.493a1 1 0 01-.953 1.045l-12.966.6a1 1 0 01-.092-1.998l12.965-.6a1 1 0 011.046.953z" fill="#fff"/>
  <path fill-rule="evenodd" clip-rule="evenodd" d="M315.016 37.581c.489.711 1.013 1.615 1.512 2.51 1.098 1.971 2.153 4.348 2.442 6.086 1.398 8.412 1.155 15.201.015 20.37-1.136 5.148-3.179 8.76-5.45 10.714-2.721 2.34-7.458 3.616-13.901 4.08-6.496.468-14.936.121-25.266-.976l-.475-.05-11.461-17.695-.041-.149c-1.129-4.096-1.982-8.373-2.562-12.83-.312-2.397-.739-4.07-1.065-5.34a46.27 46.27 0 00-.104-.398c-.09-.343-.177-.675-.238-.966-.085-.414-.146-.873-.068-1.342.131-.783.7-1.262 1.119-1.592.723-.57 1.929-1.095 3.363-1.576 1.47-.492 3.294-.975 5.344-1.418 4.1-.887 9.159-1.628 14.191-1.972 3.411-.234 10.74-.123 17.35.098 3.316.111 6.47.25 8.889.39 1.208.069 2.239.139 3.017.206.388.033.72.066.983.1.237.029.491.066.676.122.422.13.757.437.982.675.252.267.505.599.748.953zm-2.353.278a5.498 5.498 0 00-.301-.044 24.42 24.42 0 00-.907-.092 110.81 110.81 0 00-2.96-.202 386.483 386.483 0 00-8.84-.387c-6.63-.221-13.855-.328-17.148-.102-4.937.338-9.9 1.066-13.904 1.932-2.003.433-3.752.897-5.131 1.36-1.414.474-2.331.911-2.761 1.25a2.449 2.449 0 00-.359.322.33.33 0 00-.027.037c-.015.106-.01.278.056.6.049.235.115.486.198.801l.123.47c.33 1.291.783 3.058 1.11 5.578a92.03 92.03 0 002.466 12.41l10.775 16.635c10.061 1.05 18.209 1.368 24.437.92 6.379-.46 10.542-1.712 12.741-3.602 1.833-1.577 3.721-4.734 4.801-9.63 1.075-4.873 1.33-11.4-.035-19.61-.23-1.387-1.145-3.517-2.216-5.44-.496-.89-.981-1.723-1.413-2.35a6.03 6.03 0 00-.554-.713 1.43 1.43 0 00-.151-.143z" fill="#fff"/>
  <path fill-rule="evenodd" clip-rule="evenodd" d="M319.482 44.683a1 1 0 01-.895 1.095l-58.404 5.867a1 1 0 11-.199-1.99l58.403-5.867a1 1 0 011.095.895zM240.416 57.3a1 1 0 01-1.178.783c-.534-.108-.817-.046-.955.022-.109.054-.246.168-.35.508-.051.169-.052.609.356 1.474.391.827 1.076 1.878 2.093 3.164a1 1 0 01-.049 1.298L215.7 91.297a1 1 0 11-1.471-1.355l24.061-26.128c-.799-1.066-1.409-2.025-1.809-2.873-.465-.985-.738-2.008-.46-2.914.226-.736.664-1.363 1.375-1.715.681-.337 1.462-.346 2.238-.19a1 1 0 01.782 1.178zM211.308 93.987a1 1 0 01-1.2.748c-1.198-.277-2.082-.353-2.695-.284-.605.067-.806.253-.884.372-.094.144-.198.48-.05 1.197.146.703.507 1.63 1.131 2.801.503.942.916 2.094 1.329 3.243.147.41.294.819.444 1.218.597 1.582 1.301 3.161 2.4 4.565.735.939 2.122 2.255 4.226 3.966 2.09 1.699 4.837 3.747 8.247 6.146a1 1 0 11-1.15 1.635c-3.431-2.413-6.219-4.49-8.358-6.229-2.125-1.727-3.659-3.16-4.54-4.285-1.287-1.645-2.076-3.45-2.696-5.091-.184-.487-.349-.949-.507-1.387-.392-1.093-.73-2.036-1.159-2.84-.667-1.25-1.125-2.369-1.325-3.338-.198-.955-.174-1.916.333-2.693.523-.803 1.396-1.163 2.338-1.268.936-.104 2.072.024 3.368.324a1 1 0 01.748 1.2z" fill="#fff"/>
  <path fill-rule="evenodd" clip-rule="evenodd" d="M208.906 91.871a1 1 0 01-.72 1.217c-1.453.373-1.908.964-2.006 1.564-.06.368-.017.901.221 1.643.235.735.643 1.615 1.244 2.65a1 1 0 01-.193 1.244c-8.52 7.708-14.542 13.551-18.092 17.545-3.538 3.98-6.25 7.955-8.151 11.925a1 1 0 01-1.804-.864c1.996-4.168 4.822-8.297 8.46-12.39 3.543-3.985 9.436-9.711 17.655-17.165-.449-.837-.794-1.616-1.024-2.335-.292-.91-.419-1.782-.29-2.575.28-1.72 1.655-2.71 3.483-3.18a1 1 0 011.217.721zM317.638 172.793a1 1 0 011.324-.499c1.801.816 3.296 1.576 4.472 2.279 1.162.695 2.075 1.371 2.66 2.036.566.642 1.033 1.527.654 2.481-.337.849-1.207 1.329-2.069 1.635-.285.101-.678.26-1.162.457-2.955 1.198-9.342 3.788-15.937 3.172-2.475-.232-5.233-1.533-8.246-3.737a1 1 0 111.181-1.614c2.889 2.113 5.298 3.177 7.251 3.359 6.038.565 11.854-1.773 14.9-2.998.54-.217.993-.399 1.345-.524.633-.225.822-.418.867-.474-.014-.056-.071-.192-.284-.435-.381-.432-1.083-.981-2.187-1.641-1.088-.651-2.508-1.376-4.27-2.174a1 1 0 01-.499-1.323zm7.242 5.605s-.001-.006.001-.017a.042.042 0 01-.001.017zM293.961 134.079a1 1 0 011.386.282c1.813 2.74 4.88 4.849 9.348 6.251 4.073 1.278 12.898 3.689 21.95 4.682a1 1 0 011.98-.183c.091.449.135 1.1-.274 1.626-.449.577-1.13.63-1.6.58-9.343-.989-18.467-3.482-22.655-4.797-4.753-1.491-8.274-3.817-10.417-7.055a1 1 0 01.282-1.386zM310.929 8.706a1 1 0 011.035.963c.066 1.833-.032 3.318-.355 4.372-.163.53-.407 1.036-.793 1.414a2.02 2.02 0 01-1.53.59c-1.248-.053-19.692-1.545-55.262-4.47a1 1 0 01.164-1.992c35.617 2.928 53.987 4.413 55.182 4.463h.022c.006-.002.011-.007.025-.02.056-.055.169-.211.28-.57.222-.726.332-1.936.268-3.715a1 1 0 01.964-1.035zM235.236 8.51l-.67 1.1a2.791 2.791 0 01-.392.483l-.003.003-.055.057a3.951 3.951 0 00-.227.246c-.311.378-.677 1.112-.575 2.658.093 1.395.664 4.352 1.76 8.955 1.089 4.571 2.677 10.692 4.768 18.367l.239.877-.85.321c-8.242 3.112-14.584 5.466-19.023 7.047-2.218.79-3.969 1.391-5.247 1.798-.639.203-1.169.36-1.585.47-.385.1-.761.185-1.042.194-.346.011-.852-.053-1.416-.156a29.04 29.04 0 01-2.156-.49 48.42 48.42 0 01-5.992-2.03c-4.419-1.821-9.477-4.672-12.542-8.726-1.953-2.583-3.046-5.242-3.118-7.98-.068-2.635.815-5.213 2.516-7.729l.18-.265.3-.112c26.21-9.729 40.003-14.873 41.424-15.449.903-.365 1.808-.218 2.474-.015l1.232.376zm-3.54 1.721c-3.144 1.209-16.685 6.256-40.588 15.129-1.403 2.16-2.051 4.248-1.998 6.292.057 2.215.94 4.481 2.713 6.826 2.742 3.625 7.402 6.307 11.709 8.084a46.505 46.505 0 005.74 1.944c.794.209 1.474.36 2.003.456.556.101.878.129.992.125-.003 0 .042-.002.161-.026.11-.022.256-.056.44-.104.369-.097.863-.243 1.487-.441 1.245-.396 2.971-.988 5.182-1.776 4.267-1.52 10.311-3.76 18.137-6.713-1.977-7.275-3.492-13.127-4.545-17.552-1.089-4.57-1.705-7.694-1.81-9.286-.082-1.233.072-2.198.377-2.958zM177.501 29.95a1 1 0 011.059.938c.057.917.101 1.591.134 2.027.373 4.958 1.031 8.97 1.959 12.056.262.874.503 2.014.766 3.258.159.75.326 1.538.51 2.328.506 2.17 1.173 4.523 2.239 6.743.355.739 1.283 1.713 3.004 2.903a1 1 0 01-1.137 1.645c-1.783-1.232-3.08-2.453-3.67-3.683-1.158-2.411-1.865-4.928-2.384-7.154-.212-.908-.388-1.745-.548-2.506-.245-1.163-.454-2.152-.696-2.958-.985-3.277-1.659-7.445-2.037-12.482-.034-.45-.079-1.136-.136-2.055a1 1 0 01.937-1.06z" fill="#fff"/>
  <path fill-rule="evenodd" clip-rule="evenodd" d="M217.636 48.516a1 1 0 01.88 1.106c-.173 1.525.342 2.937 1.702 4.288 1.437 1.428 4.63 3.608 9.704 6.559a1 1 0 01-1.005 1.729c-5.054-2.94-8.465-5.235-10.108-6.87-1.721-1.709-2.533-3.704-2.28-5.931a1 1 0 011.107-.881zM213.298 50.216a1 1 0 01-.416 1.352c-2.321 1.228-3.47 2.91-3.647 5.077-.177 2.155.709 4.045 2.888 5.72a1 1 0 11-1.219 1.586c-2.607-2.004-3.905-4.51-3.663-7.47.242-2.948 1.877-5.185 4.706-6.681a1 1 0 011.351.416zM254.616 36.418c-.058.05-.157.17-.206.443-.184 1.029-.259 3.271.101 5.376.236 1.375.809 3.264 1.75 5.69a1 1 0 11-1.864.724c-.959-2.473-1.588-4.506-1.857-6.076-.396-2.314-.327-4.79-.099-6.066.286-1.599 1.755-2.558 2.979-1.967.343.166.609.433.815.698.213.272.406.602.587.969a1 1 0 01-1.794.884 3.776 3.776 0 00-.371-.625c-.015-.02-.028-.036-.041-.05zM322.915 17.179c-.661-.293-1.616-.559-2.898-.778a1 1 0 11.336-1.971c1.361.232 2.497.533 3.372.92.852.378 1.608.905 1.973 1.684.44.94 1.202 2.745 2.278 5.396a1 1 0 01-1.853.752c-1.079-2.657-1.821-4.415-2.236-5.298-.062-.133-.288-.402-.972-.705zM545.978 103.252l.94.341c3.539 1.284 6.245 3.151 7.959 5.708 1.862 2.778 2.439 6.21 1.929 10.173-.67 5.213-2.91 15.039-9.11 23.491-2.019 2.754-4.525 4.569-7.537 5.326-2.77.696-5.86.481-9.231-.519l-1.018-.302 16.068-44.218zm1.19 2.582l-14.645 40.301c2.706.674 5.079.736 7.148.216 2.492-.626 4.624-2.129 6.413-4.569 5.923-8.076 8.091-17.529 8.739-22.563.467-3.631-.088-6.537-1.607-8.804-1.272-1.898-3.268-3.428-6.048-4.581z" fill="#fff"/>
  <path fill-rule="evenodd" clip-rule="evenodd" d="M538.879 97.424l.987.416c2.543 1.073 4.447 2.748 5.611 5.065 1.347 2.681 1.653 6.061 1.125 10.028-.689 5.182-3.085 18.05-9.277 26.637-3.717 5.155-8.476 7.919-14.261 8.097l-1.446.044 17.261-50.287zm1.181 2.723l-15.588 45.41c4.427-.536 8.157-2.894 11.231-7.156 5.879-8.154 8.232-20.583 8.917-25.732.499-3.751.168-6.68-.93-8.866-.779-1.551-1.979-2.767-3.63-3.656z" fill="#fff"/>
  <path fill-rule="evenodd" clip-rule="evenodd" d="M549.264 76.044c2.013.57 4.411 1.466 7.187 2.668l.032.013 77.922 40.309-28.638 93.43-1.153-.942c-12.634-10.324-24.158-19.469-34.572-27.435-9.225-7.056-22.254-16.867-40.073-28.912l-3.071-2.077 3.699.25c.482.033.932.004 1.35-.079.321-.063.66-.119.996-.175l.028-.004c1.343-.222 2.818-.471 4.433-1.191 1.604-.715 3.384-1.915 5.253-4.082 2.418-2.804 5.019-7.305 7.524-14.672.371-1.09.8-2.305 1.262-3.611l.004-.011c2.919-8.263 7.078-20.139 7.024-29.479-.021-3.691-1.068-7.986-2.418-11.703-.672-1.85-1.411-3.537-2.119-4.91-.717-1.39-1.373-2.4-1.865-2.944a10.696 10.696 0 00-3.49-2.57l.685-1.873zm4.901 3.872c.498.696 1.024 1.587 1.546 2.599a44.721 44.721 0 012.222 5.144c1.391 3.83 2.515 8.365 2.538 12.373.056 9.76-4.253 21.992-7.139 30.157l-.001.004a307.5 307.5 0 00-1.256 3.596c-2.556 7.515-5.263 12.272-7.904 15.334-2.052 2.38-4.068 3.762-5.952 4.602-1.847.824-3.53 1.108-4.866 1.329 16.709 11.375 29.058 20.678 37.904 27.444 10.117 7.739 21.274 16.584 33.47 26.534l27.276-88.989-76.378-39.51a95.281 95.281 0 00-1.46-.617z" fill="#fff"/>
  <path fill-rule="evenodd" clip-rule="evenodd" d="M552.297 82.69c-2.739-1.34-5.468-1.525-8.249-.574-2.825.965-5.406 2.874-7.736 5.8a1 1 0 11-1.565-1.245c2.517-3.162 5.398-5.335 8.654-6.448 3.298-1.127 6.577-.896 9.776.671a1 1 0 11-.88 1.796zM371.883 252.696l.101.069c3.575 2.417 6.196 4.367 7.827 5.842.806.729 1.431 1.394 1.798 1.981.182.292.348.638.394 1.014.052.418-.048.87-.386 1.23-.656.7-1.305 1.465-1.979 2.261-1.958 2.309-4.134 4.878-7.374 6.874-2.176 1.341-4.041 2.516-5.505 3.512-1.486 1.012-2.484 1.79-2.985 2.336-1.868 2.036-3.495 3.872-4.965 5.53-.731.824-1.422 1.604-2.086 2.343-1.984 2.212-3.71 4.055-5.391 5.517-1.843 1.603-4.863 3.445-8.386 5.308-3.541 1.874-7.658 3.803-11.743 5.575-8.128 3.525-16.269 6.486-19.523 7.096-7.275 1.364-15.699 1.33-23.775.909-3.86-.202-7.657-.493-11.222-.766l-.508-.039c-3.718-.285-7.165-.544-10.181-.658-5.073-.191-9.623-.019-13.734.137-.792.03-1.567.06-2.327.086-4.672.16-8.809.199-12.37-.587-5.239-1.156-11.57-3.748-18.656-7.088-5.298-2.498-11.065-5.437-17.16-8.543-2.067-1.053-4.171-2.125-6.308-3.206-16.909-8.555-35.899-17.675-54.714-22.364-10.189-2.54-19.667-2.236-28.703-1.947-3.117.1-6.181.198-9.204.177-6.426-.044-19.16-1.182-38.15-3.398l-.035-.004L.815 249.879a1 1 0 01.37-1.966l63.75 12.002c18.988 2.215 31.603 3.337 37.896 3.38 2.88.02 5.855-.075 8.917-.174 9.099-.292 18.976-.61 29.46 2.003 19.058 4.75 38.228 13.967 55.134 22.52 2.151 1.088 4.265 2.166 6.337 3.221 6.086 3.102 11.813 6.02 17.08 8.504 7.069 3.332 13.229 5.84 18.235 6.944 3.28.724 7.173.702 11.87.541.749-.026 1.517-.055 2.304-.085 4.112-.156 8.746-.332 13.902-.137 3.061.115 6.548.378 10.258.662l.501.038c3.571.274 7.345.563 11.18.764 8.041.419 16.271.441 23.302-.878 3.003-.563 10.95-3.431 19.096-6.965 4.053-1.758 8.121-3.665 11.604-5.508 3.503-1.852 6.349-3.606 8.008-5.049 1.58-1.373 3.234-3.135 5.216-5.343.649-.724 1.333-1.496 2.06-2.316 1.477-1.665 3.127-3.526 5.006-5.574.675-.736 1.851-1.628 3.333-2.637 1.504-1.024 3.402-2.219 5.581-3.562 2.946-1.815 4.825-4.032 6.728-6.276.649-.765 1.301-1.534 1.999-2.291a.93.93 0 00-.03-.049c-.215-.345-.67-.86-1.442-1.557-1.508-1.363-3.999-3.227-7.504-5.6-4.645-1.666-9.856-1.063-15.719 2.006-5.927 3.103-12.784 8.994-20.573 17.765l-.33.372-.497-.039c-3.175-.253-6.646.058-10.419.951-3.773.893-7.771 2.35-11.996 4.38l-.306.147-.333-.07c-8.334-1.756-14.431-2.672-18.338-2.777-3.99-.107-7.238-.102-9.75.012l-.517.023-.318-.408c-4.387-5.645-10.342-10.154-17.898-13.51-5.677-2.522-9.746-3.466-12.717-3.993-.648-.115-1.279-.215-1.87-.309a57.484 57.484 0 01-1.932-.328c-1.057-.209-2.021-.48-2.843-1.015-.74-.481-1.897-1.485-3.237-2.722a248.119 248.119 0 01-4.656-4.453c-.835-.814-1.685-1.648-2.529-2.476-2.567-2.516-5.078-4.978-6.928-6.674-4.125-3.78-7.823-6.519-10.801-8.635-.545-.387-1.071-.757-1.572-1.109a155.38 155.38 0 01-2.337-1.664c-1.092-.799-2.019-1.533-2.687-2.235a546.112 546.112 0 00-21.08-21.007c-3.404-3.212-9.032-8.259-16.893-15.149a1 1 0 111.319-1.504c7.862 6.891 13.514 11.96 16.947 15.199a548.83 548.83 0 0121.157 21.083c.535.563 1.336 1.207 2.419 2 .677.496 1.436 1.029 2.281 1.624.504.354 1.038.729 1.604 1.131 3.01 2.139 6.783 4.932 10.994 8.792 1.877 1.72 4.426 4.219 7 6.743.839.823 1.681 1.648 2.502 2.449a244.515 244.515 0 004.617 4.416c1.362 1.257 2.396 2.141 2.97 2.515.492.32 1.147.533 2.14.728.552.109 1.131.201 1.794.305.579.092 1.223.193 1.97.326 3.101.55 7.329 1.535 13.18 4.134 7.634 3.391 13.761 7.954 18.345 13.703 2.499-.095 5.628-.092 9.38.009 4.044.109 10.18 1.034 18.364 2.749 4.219-2.005 8.251-3.466 12.094-4.376 3.746-.887 7.262-1.237 10.54-1.034 7.72-8.643 14.658-14.619 20.812-17.841 6.258-3.276 12.104-4.034 17.449-2.071l.115.042z" fill="#fff"/>
  <path fill-rule="evenodd" clip-rule="evenodd" d="M407.239 260.907c2.003 1.096 3.616 2.903 4.572 5.583.405 1.138.203 2.452-.246 3.709-.458 1.283-1.227 2.661-2.167 4.022-1.88 2.725-4.535 5.521-7.089 7.553-7.19 5.722-18.096 15.451-18.665 16.002-3.018 2.924-7.917 5.499-13.939 8.079-4.543 1.946-9.813 3.93-15.522 6.079-1.884.709-3.815 1.435-5.784 2.185-2.023.77-3.997 1.533-5.903 2.269-3.106 1.2-6.031 2.33-8.691 3.308-4.287 1.577-7.984 2.798-10.753 3.305-6.871 1.26-17.127-.072-27.436-1.891-3.701-.653-7.414-1.37-11.006-2.063-6.515-1.258-12.637-2.44-17.583-3.028-5.897-.702-11.312-.706-16.353-.71-.693 0-1.379-.001-2.058-.003-5.584-.019-10.751-.159-15.446-1.507-10.832-3.112-20.759-9.787-30.793-16.535a640.904 640.904 0 00-5.921-3.95c-1.286-.844-2.681-1.853-4.24-2.978-3.727-2.693-8.385-6.057-14.691-9.456l-.88-.474.949-1.761.88.475c6.427 3.464 11.293 6.977 15.047 9.688 1.516 1.094 2.85 2.057 4.033 2.834a682.702 682.702 0 016.015 4.011c10.038 6.746 19.652 13.207 30.153 16.223 4.393 1.262 9.298 1.411 14.901 1.43.673.002 1.355.003 2.047.003 5.035.004 10.571.008 16.593.724 5.013.596 11.266 1.803 17.839 3.071 3.576.69 7.246 1.399 10.862 2.037 10.369 1.829 20.268 3.077 26.727 1.893 2.582-.473 6.132-1.636 10.423-3.215 2.649-.974 5.545-2.093 8.636-3.287 1.908-.737 3.891-1.503 5.937-2.282 1.991-.758 3.936-1.49 5.827-2.202 5.696-2.144 10.905-4.104 15.404-6.031 6.013-2.577 10.605-5.033 13.334-7.677.625-.605 11.581-10.377 18.812-16.131 2.408-1.917 4.926-4.57 6.688-7.123.882-1.278 1.55-2.497 1.93-3.559.388-1.088.422-1.869.245-2.365-.8-2.244-2.098-3.652-3.648-4.5-1.571-.86-3.474-1.183-5.517-1.108-4.105.15-8.512 1.896-11.172 3.555-.751.468-2.429 1.701-4.614 3.305-.609.446-1.256.922-1.933 1.417-3.077 2.251-6.721 4.879-9.934 6.971-3.618 2.355-9.275 5.706-16.959 10.049l-.871.492-.984-1.741.871-.493c7.677-4.338 13.289-7.664 16.851-9.983 3.164-2.059 6.768-4.659 9.845-6.909l1.867-1.369c2.204-1.619 3.981-2.924 4.803-3.436 2.88-1.796 7.622-3.691 12.157-3.857 2.279-.083 4.569.268 6.55 1.352zM245.772 200.522c-2.719-.879-5.526-1.785-8.064-2.951-9.465-4.345-16.997-10.158-20.686-13.459-7.96-7.123-18.236-13.723-28.797-18.587-10.573-4.868-21.354-7.961-30.332-8.142-7.996-.162-14.483 3.118-20.967 6.523l-.576.303c-6.228 3.274-12.546 6.595-19.986 6.378-23.912-.699-43.832-.922-71.514.316l-.999.044-.09-1.998 1-.044c27.747-1.241 47.72-1.017 71.661-.317 6.908.202 12.806-2.897 19.174-6.243l.4-.21c6.454-3.389 13.365-6.926 21.937-6.752 9.353.19 20.417 3.393 31.128 8.326 10.723 4.937 21.17 11.643 29.295 18.913 3.58 3.203 10.947 8.89 20.186 13.132 2.422 1.112 5.061 1.964 7.747 2.832.964.312 1.934.625 2.903.953 3.6 1.221 7.149 2.638 9.841 4.916 2.048 1.733 3.926 4.014 5.39 6.342 1.46 2.32 2.55 4.755 2.966 6.812.765 3.783.053 7.363-2.102 10.688-2.137 3.296-5.667 6.306-10.493 9.062l-.868.496-.992-1.737.868-.496c4.67-2.667 7.906-5.482 9.807-8.413 1.881-2.903 2.477-5.953 1.82-9.203-.352-1.741-1.316-3.946-2.699-6.144-1.377-2.189-3.126-4.304-4.989-5.88-2.378-2.013-5.606-3.333-9.191-4.548-.906-.307-1.837-.608-2.778-.912z" fill="#fff"/>
  <path fill-rule="evenodd" clip-rule="evenodd" d="M347.042 260.395a1 1 0 01-1.132.847c-8.05-1.155-14.029-1.926-17.948-2.315-3.915-.389-9.247-.741-16.002-1.057l-.155-.007-.145-.054c-10.642-3.925-18.477-6.486-23.531-7.701a60.907 60.907 0 00-15.375-1.674l-.285.005-.245-.146c-11.402-6.791-18.909-10.961-22.576-12.558a186.99 186.99 0 00-7.945-3.234l-.721-.276c-.663-.253-1.23-.47-1.686-.651-.577-.23-1.089-.445-1.385-.638-.458-.298-1.045-.922-1.689-1.8-.665-.909-1.449-2.171-2.283-3.83-1.667-3.32-3.544-8.257-5.066-15.201-.124-.562-.634-1.514-1.728-2.914-1.066-1.363-2.599-3.045-4.614-5.05a1 1 0 011.411-1.418c2.043 2.034 3.641 3.781 4.779 5.237 1.11 1.42 1.877 2.678 2.105 3.717 1.492 6.804 3.318 11.58 4.901 14.731.791 1.577 1.519 2.741 2.109 3.546.612.835 1.024 1.214 1.165 1.306.095.061.4.203 1.034.455.442.176.991.386 1.648.637l.736.282a187.4 187.4 0 018.028 3.268c3.777 1.645 11.314 5.836 22.557 12.528a62.863 62.863 0 0115.592 1.734c5.153 1.238 13.032 3.816 23.611 7.715 6.697.315 12.017.667 15.953 1.058 3.964.394 9.978 1.17 18.034 2.326a1 1 0 01.848 1.132z" fill="#fff"/>
  <path fill-rule="evenodd" clip-rule="evenodd" d="M334.034 273.787l-.921-.391c-2.194-.932-3.812-1.377-4.909-1.428-1.097-.051-2.747.241-5.013.964l-.219.07-.227-.033c-7.196-1.036-13.021-1.765-17.48-2.188-4.487-.425-7.516-.533-9.164-.357-1.256.133-2.446.391-3.616.671-.261.062-.524.127-.786.191-.895.219-1.794.44-2.664.596-2.299.412-4.627.424-6.992-1.114-2.351-1.53-3.501-3.859-4.136-6.218-.473-1.759-.682-3.645-.866-5.297a75.66 75.66 0 00-.175-1.494c-.311-2.39-1.815-5.059-4.733-8.01l-.703-.711 1.422-1.406.703.711c3.064 3.097 4.902 6.15 5.294 9.157.071.543.132 1.095.195 1.652.18 1.618.365 3.281.795 4.879.567 2.107 1.518 3.904 3.295 5.06 1.762 1.147 3.496 1.19 5.548.822.802-.144 1.618-.344 2.499-.559l.838-.204c1.194-.286 2.484-.567 3.87-.715 1.873-.199 5.087-.069 9.564.355 4.458.423 10.243 1.145 17.35 2.167 2.23-.698 4.08-1.053 5.494-.987 1.46.068 3.344.628 5.598 1.585l.92.391-.781 1.841zM268.024 255.201a1 1 0 01-1.03.969c-3.925-.119-6.98-.002-9.194.334-2.213.337-5.181 1.137-8.922 2.422a1 1 0 01-.65-1.892c3.788-1.301 6.885-2.144 9.272-2.507 2.387-.363 5.58-.477 9.554-.356.552.017.986.478.97 1.03zM182.351 188.57a1 1 0 011.403.18c5.931 7.681 10.022 13.169 12.257 16.449a954.236 954.236 0 013.74 5.537c2.15 3.199 4.06 6.041 5.848 8.529 2.76 3.84 5.164 6.739 7.605 8.713 7.174 5.801 14.277 7.718 21.383 5.974a1 1 0 11.477 1.942c-7.852 1.928-15.582-.266-23.118-6.361-2.658-2.15-5.19-5.232-7.97-9.1-1.807-2.513-3.747-5.4-5.911-8.62-1.166-1.735-2.396-3.566-3.706-5.488-2.198-3.225-6.256-8.67-12.188-16.352a1 1 0 01.18-1.403zM416.41 270.006c-1.238-.205-2.861-.317-4.888-.327l-1-.005.011-2 1 .005c2.081.011 3.82.125 5.202.353 1.351.223 2.485.573 3.247 1.142 4.067 3.032 3.683 8.909.25 12.175-2.43 2.313-6.559 4.67-12.273 7.098-5.737 2.439-13.162 4.986-22.262 7.642l-.96.28-.56-1.919.96-.281c9.059-2.645 16.402-5.166 22.04-7.562 5.662-2.407 9.516-4.651 11.677-6.707 2.732-2.599 2.799-6.986-.067-9.123-.368-.274-1.11-.562-2.377-.771z" fill="#fff"/>
</svg>