<svg width="193" height="40" fill="none" xmlns="http://www.w3.org/2000/svg">
  <path
    focusable="false"
    aria-hidden="true"
    fill-rule="evenodd"
    clip-rule="evenodd"
    d="M37.93 0h32.094v11.963H58.02V7.914h-8.134v8.263l20.137.17v7.182H37.929V0zM72.47 0h11.433v23.53h8.352V0h11.569v23.53h8.385V0h11.556v23.53H72.471V0zM126.588 0h11.575v23.53h8.367V0h11.588v23.53h-31.53V0zM186.417 0l6.148 5.933V23.53h-31.812V0h25.664zm-5.506 7.748h-8.347v15.781h8.347V7.748zM35.577 0v23.623H3.765L3.922 0h31.655zm-11.97 7.916h-8.031v8.233h8.032V7.916zM67.576 24.094v15.812H35.482V28.044H47.44v3.807h8.134v-7.712l12.002-.045zM81.55 24.206v7.906h8.352v-7.906h11.569v7.906h8.385v-7.906h11.556v15.7H70.118V24.188l11.432.018zM135.821 24.188v7.856h8.375v-7.856h11.757l-.158 15.718h-31.56v-15.7l11.586-.018zM158.306 24.188l11.969.007-.158 7.845h8.347v-7.834l-4.04-.008 15.694.008v15.7h-31.812V24.188zM13.553 24.128V40H1.6V24.094l11.953.034z"
    fill="#FF00EC"
  />
  <path
    fill-rule="evenodd"
    clip-rule="evenodd"
    d="M36.33 0h32.094v11.963H56.42V7.914h-8.134v8.263l20.137.17v7.182H36.329V0zM70.965 0h11.432v23.53h8.352V0h11.569v23.53h8.385V0h11.556v23.53H70.965V0zM125.082 0h11.61v23.53h8.392V0h11.622v23.53h-31.624V0zM184.893 0l6.166 5.933V23.53h-31.906V0h25.74zm-5.522 7.748h-8.372v15.781h8.372V7.748zM34.07 0v23.623H2.166L2.323 0H34.07zM22.067 7.916h-8.055v8.233h8.055V7.916zM65.977 24.094v15.812H33.882V28.044H45.84v3.807h8.134v-7.712l12.003-.045zM134.221 24.188v7.856h8.375v-7.856h11.757l-.158 15.718h-31.56v-15.7l11.586-.018zM79.95 24.206v7.906h8.352v-7.906h11.57v7.906h8.384v-7.906h11.556v15.7H68.518V24.188l11.432.018zM156.8 24.188l12.004.007-.158 7.845h8.372v-7.834l-4.052-.008 15.74.008v15.7H156.8V24.188zM11.953 24.128V40H0V24.094l11.953.034z"
    fill="#36DAEA"
  />
  <path
    class="logo__fill"
    fill-rule="evenodd"
    clip-rule="evenodd"
    d="M37.082 0h32.095v11.963H57.174V7.914H49.04v8.263l20.137.17v7.182H37.082V0zM71.718 0H83.15v23.53h8.352V0h11.569v23.53h8.385V0h11.556v23.53H71.718V0zM125.835 0h11.61v23.53h8.392V0h11.622v23.53h-31.624V0zM185.646 0l6.166 5.933V23.53h-31.906V0h25.74zm-5.523 7.748h-8.371v15.781h8.371V7.748zM34.824 0v23.623H2.918L3.076 0h31.748zM22.819 7.916h-8.055v8.233h8.055V7.916zM66.73 24.094v15.812H34.634V28.044h11.958v3.807h8.134v-7.712l12.002-.045zM80.703 24.206v7.906h8.352v-7.906h11.569v7.906h8.385v-7.906h11.556v15.7H69.271V24.188l11.432.018zM134.974 24.188v7.856h8.375v-7.856h11.757l-.158 15.718h-31.56v-15.7l11.586-.018zM157.553 24.188l12.004.007-.158 7.845h8.372v-7.834l-4.052-.008 15.74.008v15.7h-31.906V24.188zM12.706 24.128V40H.753V24.094l11.953.034z"
    fill="#333"
  />
</svg>
